# xmcd
#
# Track frame offsets:
#	150
#	24265
#	44460
#	57650
#	72817
#	93910
#	116247
#	133067
#	156210
#
# Disc length: 2325 seconds
#
# Revision: 2
# Processed by: cddbd v1.5.2PL0 Copyright (c) Steve Scherf et al.
# Submitted via: dBpowerAMP V4.0
#
DISCID=7b091309
DTITLE=Lou Rawls - All Things In Time
DYEAR=1900
DGENRE=blues
TTITLE0=You're the One
TTITLE1=You'll Never Find Another Love Like Mine
TTITLE2=Time
TTITLE3=Groovy People
TTITLE4=Need You Forever
TTITLE5=From Now On
TTITLE6=Pure Imagination
TTITLE7=This Song Will Last Forever
TTITLE8=Let's Fall In Love Again
EXTD=
EXTT0=
EXTT1=
EXTT2=
EXTT3=
EXTT4=
EXTT5=
EXTT6=
EXTT7=
EXTT8=
PLAYORDER=
